<svg width="24" height="25" viewBox="0 0 24 25" fill="none" xmlns="http://www.w3.org/2000/svg">
<path d="M17.8195 14.8039C13.4867 14.826 12.7858 17.5315 12.5522 19.8192L12.4461 20.831H11.5752L11.469 19.8192C11.2354 17.5315 10.5133 14.8259 6.32919 14.8039C5.62832 13.3081 5.33097 12.0983 5.33097 10.7345C5.33097 7.32503 8.02834 4.1354 12.0212 4.1354C16.0141 4.1354 18.669 7.30291 18.669 10.7566C18.669 12.0983 18.5416 13.3081 17.8195 14.8039ZM11.9788 0C5.39475 0 0 5.58724 0 12.4281C0 19.2912 5.39475 24.8784 11.9788 24.8784C18.6265 24.8784 24 19.2912 24 12.4281C24 5.58726 18.6265 0 11.9788 0Z" fill="white"/>
</svg>
