<svg width="111" height="54" viewBox="0 0 111 54" fill="none" xmlns="http://www.w3.org/2000/svg">
<g clip-path="url(#clip0_2005_5539)">
<path d="M20.753 11.6959L20.56 10.7276H19.7211L19.5282 11.6959H18.7112L19.5779 7.34863H20.7039L21.5706 11.6959H20.753ZM20.3995 9.92494L20.1403 8.62415L19.881 9.92494H20.3995Z" fill="#F2F2F2"/>
<path d="M24.9971 11.6959H23.0129V7.34863H23.816V10.8932H24.9971V11.6959Z" fill="#F2F2F2"/>
<path d="M29.4374 11.6959H28.6343V9.24728L27.9367 10.7416L27.2411 9.24728V11.6959H26.4407V7.34863H27.2411L27.9367 8.84294L28.6343 7.34863H29.4374V11.6959Z" fill="#F2F2F2"/>
<path d="M32.9224 11.6959L32.7295 10.7276H31.8906L31.6976 11.6959H30.8806L31.7473 7.34863H32.8734L33.7401 11.6959H32.9224ZM32.569 9.92494L32.3097 8.62415L32.0504 9.92494H32.569Z" fill="#F2F2F2"/>
<path d="M37.2222 8.15132H36.4271V11.6959H35.624V8.15132H34.8296V7.34863H37.2222V8.15132Z" fill="#F2F2F2"/>
<path d="M40.4365 10.0939V11.6959H39.6248V10.0885L38.6646 7.34863H39.4868L40.0333 8.9673L40.5717 7.34863H41.4212L40.4365 10.0939Z" fill="#F2F2F2"/>
<path d="M49.6441 46.1973L49.1334 46.6515H47.7515L47.2349 46.1973V45.4976H48.0353V45.8488H48.8436V44.8805H47.7515L47.2349 44.4236V42.7604L47.7515 42.3042H49.1334L49.6441 42.7577V43.4327H48.8436V43.1069H48.0353V44.0752H49.1334L49.6441 44.5314V46.1973Z" fill="#F2F2F2"/>
<path d="M53.479 43.1069H52.6839V46.6515H51.8809V43.1069H51.0864V42.3042H53.479V43.1069Z" fill="#F2F2F2"/>
<path d="M56.6111 46.6515L56.4182 45.6832H55.5793L55.3863 46.6515H54.5693L55.4361 42.3042H56.5621L57.4281 46.6515H56.6111ZM56.2577 44.8805L55.9984 43.5797L55.7391 44.8805H56.2577Z" fill="#F2F2F2"/>
<path d="M60.5435 46.6515L59.6689 44.3738V46.6515H58.8711V42.3042H59.7292L60.6065 44.5846V42.3042H61.4016V46.6455L61.4043 46.6515H60.5435Z" fill="#F2F2F2"/>
<path d="M64.8169 42.3042L65.3354 42.7637V46.1953L64.8169 46.6521H62.8467V42.3049H64.8169V42.3042ZM64.5357 43.1069H63.6497V45.8488H64.5357V43.1069Z" fill="#F2F2F2"/>
<path d="M71.7579 46.1946L71.2333 46.6515H69.7738L69.2605 46.1973V42.3042H70.0609V45.8488H70.9575V42.3042H71.7579V46.1946Z" fill="#F2F2F2"/>
<path d="M75.6174 44.7142L75.0988 45.1764H74.0033V46.6515H73.2029V42.3042H75.0988L75.6174 42.7637V44.7142ZM74.817 43.1069H74.0026V44.3744H74.817V43.1069Z" fill="#F2F2F2"/>
<path d="M82.0036 46.1973L81.4797 46.6515H80.0526L79.542 46.1973V42.7604L80.0526 42.3042H81.4797L82.0036 42.7637V43.4327H81.2032V43.1069H80.3424V45.8488H81.2032V45.4976H82.0036V46.1973Z" fill="#F2F2F2"/>
<path d="M85.4292 46.6515H83.4451V42.3042H84.2481V45.8488H85.4292V46.6515Z" fill="#F2F2F2"/>
<path d="M89.3697 46.1946L88.8458 46.6515H87.3862L86.8723 46.1973V42.3042H87.6727V45.8488H88.57V42.3042H89.3697V46.1946Z" fill="#F2F2F2"/>
<path d="M93.2405 46.1972L92.7272 46.6507H90.8147V42.3035H92.7272L93.2405 42.7603V44.097L92.9314 44.4734L93.2405 44.8578V46.1972ZM91.6151 44.0751H92.4374V43.1068H91.6151V44.0751ZM91.6151 45.8487H92.4374V44.8804H91.6151V45.8487Z" fill="#F2F2F2"/>
<mask id="mask0_2005_5539" style="mask-type:luminance" maskUnits="userSpaceOnUse" x="0" y="0" width="111" height="54">
<path d="M111 0H0V54H111V0Z" fill="white"/>
</mask>
<g mask="url(#mask0_2005_5539)">
<path d="M99.4223 45.6813H96.8148C96.6656 45.6813 96.5449 45.5602 96.5449 45.4106C96.5449 45.261 96.6656 45.1399 96.8148 45.1399H99.4223C101.002 45.1399 102.288 43.8511 102.288 42.2664V11.9386C102.288 10.3538 101.003 9.06501 99.4223 9.06501H44.7064C44.5572 9.06501 44.4365 8.94398 44.4365 8.79435C44.4365 8.64472 44.5572 8.52368 44.7064 8.52368H99.4223C101.3 8.52368 102.827 10.0552 102.827 11.9386V42.2664C102.827 44.1491 101.3 45.6813 99.4223 45.6813Z" fill="#F2F2F2"/>
</g>
<mask id="mask1_2005_5539" style="mask-type:luminance" maskUnits="userSpaceOnUse" x="0" y="0" width="111" height="54">
<path d="M111 0H0V54H111V0Z" fill="white"/>
</mask>
<g mask="url(#mask1_2005_5539)">
<path d="M99.4223 44.2373H96.8141C96.6649 44.2373 96.5442 44.1163 96.5442 43.9667C96.5442 43.817 96.6649 43.696 96.8141 43.696H99.4223C100.209 43.696 100.848 43.0543 100.848 42.2662V11.9384C100.848 11.1497 100.208 10.5086 99.4223 10.5086H44.7064C44.5572 10.5086 44.4365 10.3876 44.4365 10.2379C44.4365 10.0883 44.5572 9.96729 44.7064 9.96729H99.4223C100.506 9.96729 101.388 10.8518 101.388 11.9384V42.2662C101.388 43.3535 100.506 44.2373 99.4223 44.2373Z" fill="#F2F2F2"/>
</g>
<mask id="mask2_2005_5539" style="mask-type:luminance" maskUnits="userSpaceOnUse" x="0" y="0" width="111" height="54">
<path d="M111 0H0V54H111V0Z" fill="white"/>
</mask>
<g mask="url(#mask2_2005_5539)">
<path d="M43.6188 45.6813H11.5771C9.69975 45.6813 8.17188 44.1497 8.17188 42.2664V11.9386C8.17188 10.0559 9.69909 8.52368 11.5771 8.52368H15.4552C15.6044 8.52368 15.7251 8.64472 15.7251 8.79435C15.7251 8.94398 15.6044 9.06501 15.4552 9.06501H11.5771C9.9975 9.06501 8.71167 10.3538 8.71167 11.9386V42.2664C8.71167 43.8505 9.99684 45.1399 11.5771 45.1399H43.6181C43.7673 45.1399 43.888 45.261 43.888 45.4106C43.888 45.5602 43.768 45.6813 43.6188 45.6813Z" fill="#F2F2F2"/>
</g>
<mask id="mask3_2005_5539" style="mask-type:luminance" maskUnits="userSpaceOnUse" x="0" y="0" width="111" height="54">
<path d="M111 0H0V54H111V0Z" fill="white"/>
</mask>
<g mask="url(#mask3_2005_5539)">
<path d="M43.6188 44.2373H11.5771C10.4929 44.2373 9.61157 43.3529 9.61157 42.2662V11.9384C9.61157 10.8518 10.4936 9.96729 11.5771 9.96729H15.4552C15.6044 9.96729 15.7251 10.0883 15.7251 10.2379C15.7251 10.3876 15.6044 10.5086 15.4552 10.5086H11.5771C10.7906 10.5086 10.1514 11.1504 10.1514 11.9384V42.2662C10.1514 43.0549 10.7913 43.696 11.5771 43.696H43.6181C43.7674 43.696 43.888 43.817 43.888 43.9667C43.888 44.1163 43.768 44.2373 43.6188 44.2373Z" fill="#F2F2F2"/>
</g>
<mask id="mask4_2005_5539" style="mask-type:luminance" maskUnits="userSpaceOnUse" x="0" y="0" width="111" height="54">
<path d="M111 0H0V54H111V0Z" fill="white"/>
</mask>
<g mask="url(#mask4_2005_5539)">
<path d="M26.346 30.1734L26.0907 34.931C25.1046 35.3293 24.222 35.5288 23.4415 35.5288C21.6052 35.5288 20.0588 34.8532 18.8041 33.5018C17.4003 31.9869 16.698 29.8429 16.698 27.0691C16.698 24.4735 17.3578 22.3893 18.6762 20.8178C19.9951 19.2537 21.7578 18.4709 23.9627 18.4709C24.6796 18.4709 25.4097 18.6059 26.1544 18.8766V23.581C25.4946 22.9193 24.8168 22.5888 24.1225 22.5888C23.2147 22.5888 22.5058 22.9765 21.9945 23.7519C21.4839 24.5346 21.2286 25.6153 21.2286 26.9946C21.2286 27.6629 21.2929 28.2608 21.4209 28.7868C21.5482 29.3135 21.7306 29.7577 21.968 30.1202C22.2061 30.4826 22.4985 30.7599 22.846 30.9521C23.1935 31.1443 23.5907 31.2401 24.037 31.2401C24.8036 31.2401 25.5735 30.885 26.346 30.1734Z" fill="#F2F2F2"/>
</g>
<mask id="mask5_2005_5539" style="mask-type:luminance" maskUnits="userSpaceOnUse" x="0" y="0" width="111" height="54">
<path d="M111 0H0V54H111V0Z" fill="white"/>
</mask>
<g mask="url(#mask5_2005_5539)">
<path d="M27.6597 35.2411V18.7698H35.9038V22.6422H32.0954V25.043H35.5099V28.7658H32.0954V31.2829H35.9038V35.2411H27.6597Z" fill="#F2F2F2"/>
</g>
<mask id="mask6_2005_5539" style="mask-type:luminance" maskUnits="userSpaceOnUse" x="0" y="0" width="111" height="54">
<path d="M111 0H0V54H111V0Z" fill="white"/>
</mask>
<g mask="url(#mask6_2005_5539)">
<path d="M37.4814 35.2411V18.7698H41.7156L43.9385 24.5515C44.0591 24.8933 44.1958 25.2844 44.3483 25.7253C44.5008 26.1662 44.6686 26.6743 44.8529 27.2508L45.3105 28.7019C45.1474 27.2721 45.0234 26.0491 44.9385 25.0323C44.8529 24.0155 44.8105 23.1623 44.8105 22.472V18.7704H49.0447V35.2418H44.8105L42.577 29.1827C42.3429 28.5357 42.1321 27.9292 41.9444 27.3639C41.7567 26.7986 41.5916 26.2599 41.449 25.7479C41.5419 26.907 41.6088 27.9172 41.6513 28.7771C41.6937 29.6376 41.7149 30.3917 41.7149 31.0388V35.2418H37.4814V35.2411Z" fill="#F2F2F2"/>
</g>
<mask id="mask7_2005_5539" style="mask-type:luminance" maskUnits="userSpaceOnUse" x="0" y="0" width="111" height="54">
<path d="M111 0H0V54H111V0Z" fill="white"/>
</mask>
<g mask="url(#mask7_2005_5539)">
<path d="M56.6091 35.2411H52.1733V22.7167H49.7263V18.7698H59.1516V22.7167H56.6091V35.2411Z" fill="#F2F2F2"/>
</g>
<mask id="mask8_2005_5539" style="mask-type:luminance" maskUnits="userSpaceOnUse" x="0" y="0" width="111" height="54">
<path d="M111 0H0V54H111V0Z" fill="white"/>
</mask>
<g mask="url(#mask8_2005_5539)">
<path d="M71.5204 35.2411H66.7226L64.5316 29.3736C64.5097 29.2745 64.4726 29.1428 64.4202 28.9792C64.3671 28.8156 64.3015 28.6201 64.2232 28.3927L64.2544 29.4807V35.2411H59.8398V18.7698H64.3824C66.3824 18.7698 67.8785 19.1648 68.8712 19.9542C70.1331 20.9644 70.7651 22.4008 70.7651 24.2642C70.7651 26.2553 69.9176 27.6319 68.2226 28.3927L71.5204 35.2411ZM64.2763 26.3976H64.574C65.0846 26.3976 65.5097 26.2021 65.8506 25.8111C66.1908 25.42 66.3605 24.9219 66.3605 24.3174C66.3605 23.0871 65.7193 22.472 64.4354 22.472H64.2763V26.3976Z" fill="#F2F2F2"/>
</g>
<mask id="mask9_2005_5539" style="mask-type:luminance" maskUnits="userSpaceOnUse" x="0" y="0" width="111" height="54">
<path d="M111 0H0V54H111V0Z" fill="white"/>
</mask>
<g mask="url(#mask9_2005_5539)">
<path d="M84.7216 35.2411H80.1367L79.8071 33.1503H76.8176L76.4556 35.2411H71.8706L75.817 18.7698H81.2421L84.7216 35.2411ZM79.2859 29.619L78.9987 27.6984C78.9914 27.6911 78.9775 27.5953 78.9563 27.4104C78.9423 27.2542 78.8681 26.635 78.7328 25.5537C78.7182 25.4327 78.701 25.2677 78.6797 25.0576C78.6585 24.8481 78.63 24.5828 78.5942 24.2629L78.4563 22.7054C78.4417 22.855 78.4224 23.0219 78.3972 23.2068C78.372 23.3917 78.3455 23.5945 78.3177 23.8147C78.2679 24.2556 78.2328 24.5615 78.2116 24.7317C78.1903 24.9026 78.1758 25.0057 78.1691 25.041L77.8601 27.0354L77.4131 29.617H79.2859V29.619Z" fill="#F2F2F2"/>
</g>
<mask id="mask10_2005_5539" style="mask-type:luminance" maskUnits="userSpaceOnUse" x="0" y="0" width="111" height="54">
<path d="M111 0H0V54H111V0Z" fill="white"/>
</mask>
<g mask="url(#mask10_2005_5539)">
<path d="M93.2405 35.2411H85.4751V18.7698H89.9109V31.2829H93.2405V35.2411Z" fill="#F2F2F2"/>
</g>
</g>
<defs>
<clipPath id="clip0_2005_5539">
<rect width="111" height="54" fill="white"/>
</clipPath>
</defs>
</svg>
