<svg width="24" height="25" viewBox="0 0 24 25" fill="none" xmlns="http://www.w3.org/2000/svg">
<path d="M12 0.439209C18.6274 0.439209 24 5.81179 24 12.4392C24 19.0666 18.6274 24.4392 12 24.4392C5.37258 24.4392 0 19.0666 0 12.4392C0 5.81179 5.37258 0.439209 12 0.439209ZM11.999 6.03882C10.2623 6.03882 10.0438 6.04682 9.36133 6.07788C8.68039 6.10909 8.21537 6.2166 7.80859 6.37476C7.38774 6.53819 7.03047 6.7573 6.6748 7.11304C6.3188 7.46877 6.09955 7.82602 5.93555 8.24683C5.7769 8.65387 5.66934 9.11952 5.63867 9.80054C5.60815 10.4829 5.59961 10.7014 5.59961 12.4392C5.59961 14.1774 5.60774 14.3952 5.63867 15.0779C5.67001 15.7588 5.77752 16.2238 5.93555 16.6306C6.0991 17.0514 6.31813 17.4088 6.67383 17.7644C7.02943 18.1204 7.38695 18.3402 7.80762 18.5037C8.21477 18.6619 8.68024 18.7693 9.36133 18.8005C10.0438 18.8316 10.2622 18.8396 12 18.8396C13.7381 18.8396 13.956 18.8316 14.6387 18.8005C15.3197 18.7693 15.7853 18.6619 16.1924 18.5037C16.6132 18.3402 16.9696 18.1204 17.3252 17.7644C17.6812 17.4087 17.9005 17.0514 18.0645 16.6306C18.2217 16.2237 18.3293 15.7586 18.3613 15.0779C18.392 14.3952 18.4004 14.1774 18.4004 12.4392C18.4004 10.7013 18.392 10.483 18.3613 9.80054C18.3293 9.11922 18.2218 8.65376 18.0645 8.24683C17.9005 7.82589 17.6812 7.46877 17.3252 7.11304C16.9693 6.75718 16.6136 6.53806 16.1924 6.37476C15.7845 6.21652 15.3188 6.10911 14.6377 6.07788C13.9551 6.04682 13.7373 6.03882 11.999 6.03882Z" fill="white"/>
<path d="M11.4268 7.19287C11.5971 7.19261 11.7875 7.19287 12.001 7.19287C13.7095 7.19287 13.9122 7.19834 14.5869 7.229C15.2108 7.25754 15.5498 7.36211 15.7754 7.44971C16.0739 7.56569 16.2869 7.70429 16.5107 7.92822C16.7347 8.15222 16.873 8.36589 16.9893 8.66455C17.0768 8.88984 17.1815 9.22832 17.21 9.85205C17.2406 10.5267 17.2471 10.73 17.2471 12.438C17.2471 14.1456 17.2406 14.3485 17.21 15.0229C17.1814 15.647 17.0769 15.9861 16.9893 16.2114C16.8733 16.5099 16.7347 16.723 16.5107 16.9468C16.2868 17.1707 16.074 17.3093 15.7754 17.4253C15.5501 17.5133 15.2109 17.6175 14.5869 17.646C13.9123 17.6767 13.7095 17.6831 12.001 17.6831C10.292 17.6831 10.0887 17.6767 9.41406 17.646C8.7903 17.6172 8.45128 17.5129 8.22559 17.4253C7.92706 17.3093 7.71417 17.1697 7.49023 16.9458C7.2663 16.7218 7.12699 16.5092 7.01074 16.2104C6.92318 15.9852 6.81943 15.6465 6.79102 15.0229C6.76035 14.3483 6.75391 14.1451 6.75391 12.436C6.75391 10.7273 6.76036 10.5255 6.79102 9.85107C6.81954 9.22723 6.92316 8.8882 7.01074 8.6626C7.12674 8.36393 7.26623 8.15027 7.49023 7.92627C7.71404 7.70251 7.92726 7.56395 8.22559 7.44775C8.45114 7.35977 8.79032 7.25574 9.41406 7.22705C10.0045 7.20038 10.2339 7.19225 11.4268 7.19092V7.19287ZM11.8311 9.15674C10.0949 9.24499 8.71401 10.6809 8.71387 12.439C8.71387 14.2541 10.1859 15.7251 12.001 15.7251C13.8159 15.7249 15.2871 14.2539 15.2871 12.439C15.287 10.6242 13.8157 9.15309 12.001 9.15283L11.8311 9.15674ZM15.3389 8.25928C14.9515 8.29839 14.6484 8.62518 14.6484 9.02295C14.6484 9.44695 14.993 9.79053 15.417 9.79053C15.841 9.79049 16.1846 9.44693 16.1846 9.02295C16.1846 8.59897 15.841 8.2554 15.417 8.25537L15.3389 8.25928Z" fill="white"/>
<path d="M12.0005 10.3059C13.1787 10.3059 14.1339 11.261 14.1339 12.4393C14.1339 13.6174 13.1787 14.5726 12.0005 14.5726C10.8223 14.5726 9.86719 13.6174 9.86719 12.4393C9.86719 11.261 10.8223 10.3059 12.0005 10.3059Z" fill="white"/>
</svg>
