<svg width="112" height="54" viewBox="0 0 112 54" fill="none"
    xmlns="http://www.w3.org/2000/svg">
    <g clip-path="url(#clip0_156_4424)">
        <path d="M21.253 11.6959L21.06 10.7276H20.2211L20.0282 11.6959H19.2112L20.0779 7.34863H21.2039L22.0706 11.6959H21.253ZM20.8995 9.92494L20.6403 8.62415L20.381 9.92494H20.8995Z" fill="#101121"/>
        <path d="M25.4972 11.6959H23.5131V7.34863H24.3161V10.8932H25.4972V11.6959Z" fill="#101121"/>
        <path d="M29.9375 11.6959H29.1345V9.24728L28.4368 10.7416L27.7412 9.24728V11.6959H26.9408V7.34863H27.7412L28.4368 8.84294L29.1345 7.34863H29.9375V11.6959Z" fill="#101121"/>
        <path d="M33.4223 11.6959L33.2293 10.7276H32.3905L32.1975 11.6959H31.3805L32.2472 7.34863H33.3732L34.24 11.6959H33.4223ZM33.0689 9.92494L32.8096 8.62415L32.5503 9.92494H33.0689Z" fill="#101121"/>
        <path d="M37.7222 8.15132H36.9271V11.6959H36.124V8.15132H35.3296V7.34863H37.7222V8.15132Z" fill="#101121"/>
        <path d="M40.9363 10.0939V11.6959H40.1247V10.0885L39.1644 7.34863H39.9867L40.5332 8.9673L41.0716 7.34863H41.9211L40.9363 10.0939Z" fill="#101121"/>
        <path d="M50.1442 46.1973L49.6336 46.6515H48.2516L47.735 46.1973V45.4976H48.5354V45.8488H49.3438V44.8805H48.2516L47.735 44.4236V42.7604L48.2516 42.3042H49.6336L50.1442 42.7577V43.4327H49.3438V43.1069H48.5354V44.0752H49.6336L50.1442 44.5314V46.1973Z" fill="#101121"/>
        <path d="M53.979 43.1069H53.1839V46.6515H52.3809V43.1069H51.5864V42.3042H53.979V43.1069Z" fill="#101121"/>
        <path d="M57.1111 46.6515L56.9182 45.6832H56.0793L55.8863 46.6515H55.0693L55.9361 42.3042H57.0621L57.9281 46.6515H57.1111ZM56.7577 44.8805L56.4984 43.5797L56.2391 44.8805H56.7577Z" fill="#101121"/>
        <path d="M61.0435 46.6515L60.1689 44.3738V46.6515H59.3711V42.3042H60.2292L61.1065 44.5846V42.3042H61.9016V46.6455L61.9043 46.6515H61.0435Z" fill="#101121"/>
        <path d="M65.3169 42.3042L65.8354 42.7637V46.1953L65.3169 46.6521H63.3467V42.3049H65.3169V42.3042ZM65.0357 43.1069H64.1497V45.8488H65.0357V43.1069Z" fill="#101121"/>
        <path d="M72.2579 46.1946L71.7333 46.6515H70.2738L69.7605 46.1973V42.3042H70.5609V45.8488H71.4575V42.3042H72.2579V46.1946Z" fill="#101121"/>
        <path d="M76.1174 44.7142L75.5988 45.1764H74.5033V46.6515H73.7029V42.3042H75.5988L76.1174 42.7637V44.7142ZM75.317 43.1069H74.5026V44.3744H75.317V43.1069Z" fill="#101121"/>
        <path d="M82.5035 46.1973L81.9796 46.6515H80.5525L80.0419 46.1973V42.7604L80.5525 42.3042H81.9796L82.5035 42.7637V43.4327H81.703V43.1069H80.8423V45.8488H81.703V45.4976H82.5035V46.1973Z" fill="#101121"/>
        <path d="M85.9292 46.6515H83.9451V42.3042H84.7481V45.8488H85.9292V46.6515Z" fill="#101121"/>
        <path d="M89.8697 46.1946L89.3458 46.6515H87.8862L87.3723 46.1973V42.3042H88.1727V45.8488H89.07V42.3042H89.8697V46.1946Z" fill="#101121"/>
        <path d="M93.7404 46.1972L93.2271 46.6507H91.3146V42.3035H93.2271L93.7404 42.7603V44.097L93.4313 44.4734L93.7404 44.8578V46.1972ZM92.115 44.0751H92.9373V43.1068H92.115V44.0751ZM92.115 45.8487H92.9373V44.8804H92.115V45.8487Z" fill="#101121"/>
        <mask id="mask0_156_4424" style="mask-type:luminance" maskUnits="userSpaceOnUse" x="0" y="0" width="112" height="54">
            <path d="M111.5 0H0.5V54H111.5V0Z" fill="white"/>
        </mask>
        <g mask="url(#mask0_156_4424)">
            <path d="M99.9223 45.6813H97.3148C97.1656 45.6813 97.0449 45.5602 97.0449 45.4106C97.0449 45.261 97.1656 45.1399 97.3148 45.1399H99.9223C101.502 45.1399 102.788 43.8511 102.788 42.2664V11.9386C102.788 10.3538 101.503 9.06501 99.9223 9.06501H45.2064C45.0572 9.06501 44.9365 8.94398 44.9365 8.79435C44.9365 8.64472 45.0572 8.52368 45.2064 8.52368H99.9223C101.8 8.52368 103.327 10.0552 103.327 11.9386V42.2664C103.327 44.1491 101.8 45.6813 99.9223 45.6813Z" fill="#101121"/>
        </g>
        <mask id="mask1_156_4424" style="mask-type:luminance" maskUnits="userSpaceOnUse" x="0" y="0" width="112" height="54">
            <path d="M111.5 0H0.5V54H111.5V0Z" fill="white"/>
        </mask>
        <g mask="url(#mask1_156_4424)">
            <path d="M99.9223 44.2373H97.3141C97.1649 44.2373 97.0442 44.1163 97.0442 43.9667C97.0442 43.817 97.1649 43.696 97.3141 43.696H99.9223C100.709 43.696 101.348 43.0543 101.348 42.2662V11.9384C101.348 11.1497 100.708 10.5086 99.9223 10.5086H45.2064C45.0572 10.5086 44.9365 10.3876 44.9365 10.2379C44.9365 10.0883 45.0572 9.96729 45.2064 9.96729H99.9223C101.006 9.96729 101.888 10.8518 101.888 11.9384V42.2662C101.888 43.3535 101.006 44.2373 99.9223 44.2373Z" fill="#101121"/>
        </g>
        <mask id="mask2_156_4424" style="mask-type:luminance" maskUnits="userSpaceOnUse" x="0" y="0" width="112" height="54">
            <path d="M111.5 0H0.5V54H111.5V0Z" fill="white"/>
        </mask>
        <g mask="url(#mask2_156_4424)">
            <path d="M44.1188 45.6813H12.0771C10.1998 45.6813 8.67188 44.1497 8.67188 42.2664V11.9386C8.67188 10.0559 10.1991 8.52368 12.0771 8.52368H15.9552C16.1044 8.52368 16.2251 8.64472 16.2251 8.79435C16.2251 8.94398 16.1044 9.06501 15.9552 9.06501H12.0771C10.4975 9.06501 9.21167 10.3538 9.21167 11.9386V42.2664C9.21167 43.8505 10.4968 45.1399 12.0771 45.1399H44.1181C44.2673 45.1399 44.388 45.261 44.388 45.4106C44.388 45.5602 44.268 45.6813 44.1188 45.6813Z" fill="#101121"/>
        </g>
        <mask id="mask3_156_4424" style="mask-type:luminance" maskUnits="userSpaceOnUse" x="0" y="0" width="112" height="54">
            <path d="M111.5 0H0.5V54H111.5V0Z" fill="white"/>
        </mask>
        <g mask="url(#mask3_156_4424)">
            <path d="M44.1188 44.2373H12.0771C10.9929 44.2373 10.1116 43.3529 10.1116 42.2662V11.9384C10.1116 10.8518 10.9936 9.96729 12.0771 9.96729H15.9552C16.1044 9.96729 16.2251 10.0883 16.2251 10.2379C16.2251 10.3876 16.1044 10.5086 15.9552 10.5086H12.0771C11.2906 10.5086 10.6514 11.1504 10.6514 11.9384V42.2662C10.6514 43.0549 11.2913 43.696 12.0771 43.696H44.1181C44.2674 43.696 44.388 43.817 44.388 43.9667C44.388 44.1163 44.268 44.2373 44.1188 44.2373Z" fill="#101121"/>
        </g>
        <mask id="mask4_156_4424" style="mask-type:luminance" maskUnits="userSpaceOnUse" x="0" y="0" width="112" height="54">
            <path d="M111.5 0H0.5V54H111.5V0Z" fill="white"/>
        </mask>
        <g mask="url(#mask4_156_4424)">
            <path d="M26.8459 30.1734L26.5906 34.931C25.6045 35.3293 24.7219 35.5288 23.9414 35.5288C22.1051 35.5288 20.5587 34.8532 19.304 33.5018C17.9001 31.9869 17.1979 29.8429 17.1979 27.0691C17.1979 24.4735 17.8577 22.3893 19.176 20.8178C20.495 19.2537 22.2576 18.4709 24.4626 18.4709C25.1795 18.4709 25.9096 18.6059 26.6543 18.8766V23.581C25.9945 22.9193 25.3167 22.5888 24.6224 22.5888C23.7146 22.5888 23.0057 22.9765 22.4944 23.7519C21.9838 24.5346 21.7285 25.6153 21.7285 26.9946C21.7285 27.6629 21.7928 28.2608 21.9208 28.7868C22.0481 29.3135 22.2305 29.7577 22.4679 30.1202C22.7059 30.4826 22.9984 30.7599 23.3459 30.9521C23.6934 31.1443 24.0906 31.2401 24.5369 31.2401C25.3035 31.2401 26.0734 30.885 26.8459 30.1734Z" fill="#101121"/>
        </g>
        <mask id="mask5_156_4424" style="mask-type:luminance" maskUnits="userSpaceOnUse" x="0" y="0" width="112" height="54">
            <path d="M111.5 0H0.5V54H111.5V0Z" fill="white"/>
        </mask>
        <g mask="url(#mask5_156_4424)">
            <path d="M28.1597 35.2411V18.7698H36.4038V22.6422H32.5954V25.043H36.0099V28.7658H32.5954V31.2829H36.4038V35.2411H28.1597Z" fill="#101121"/>
        </g>
        <mask id="mask6_156_4424" style="mask-type:luminance" maskUnits="userSpaceOnUse" x="0" y="0" width="112" height="54">
            <path d="M111.5 0H0.5V54H111.5V0Z" fill="white"/>
        </mask>
        <g mask="url(#mask6_156_4424)">
            <path d="M37.9814 35.2411V18.7698H42.2156L44.4385 24.5515C44.5591 24.8933 44.6958 25.2844 44.8483 25.7253C45.0008 26.1662 45.1686 26.6743 45.3529 27.2508L45.8105 28.7019C45.6474 27.2721 45.5234 26.0491 45.4385 25.0323C45.3529 24.0155 45.3105 23.1623 45.3105 22.472V18.7704H49.5447V35.2418H45.3105L43.077 29.1827C42.8429 28.5357 42.6321 27.9292 42.4444 27.3639C42.2567 26.7986 42.0916 26.2599 41.949 25.7479C42.0419 26.907 42.1088 27.9172 42.1513 28.7771C42.1937 29.6376 42.2149 30.3917 42.2149 31.0388V35.2418H37.9814V35.2411Z" fill="#101121"/>
        </g>
        <mask id="mask7_156_4424" style="mask-type:luminance" maskUnits="userSpaceOnUse" x="0" y="0" width="112" height="54">
            <path d="M111.5 0H0.5V54H111.5V0Z" fill="white"/>
        </mask>
        <g mask="url(#mask7_156_4424)">
            <path d="M57.1091 35.2411H52.6733V22.7167H50.2263V18.7698H59.6516V22.7167H57.1091V35.2411Z" fill="#101121"/>
        </g>
        <mask id="mask8_156_4424" style="mask-type:luminance" maskUnits="userSpaceOnUse" x="0" y="0" width="112" height="54">
            <path d="M111.5 0H0.5V54H111.5V0Z" fill="white"/>
        </mask>
        <g mask="url(#mask8_156_4424)">
            <path d="M72.0205 35.2411H67.2227L65.0317 29.3736C65.0098 29.2745 64.9727 29.1428 64.9203 28.9792C64.8672 28.8156 64.8016 28.6201 64.7233 28.3927L64.7545 29.4807V35.2411H60.34V18.7698H64.8825C66.8825 18.7698 68.3786 19.1648 69.3713 19.9542C70.6333 20.9644 71.2652 22.4008 71.2652 24.2642C71.2652 26.2553 70.4177 27.6319 68.7227 28.3927L72.0205 35.2411ZM64.7764 26.3976H65.0741C65.5848 26.3976 66.0098 26.2021 66.3507 25.8111C66.6909 25.42 66.8606 24.9219 66.8606 24.3174C66.8606 23.0871 66.2194 22.472 64.9355 22.472H64.7764V26.3976Z" fill="#101121"/>
        </g>
        <mask id="mask9_156_4424" style="mask-type:luminance" maskUnits="userSpaceOnUse" x="0" y="0" width="112" height="54">
            <path d="M111.5 0H0.5V54H111.5V0Z" fill="white"/>
        </mask>
        <g mask="url(#mask9_156_4424)">
            <path d="M85.2216 35.2411H80.6367L80.3071 33.1503H77.3176L76.9556 35.2411H72.3706L76.317 18.7698H81.7421L85.2216 35.2411ZM79.7859 29.619L79.4987 27.6984C79.4914 27.6911 79.4775 27.5953 79.4563 27.4104C79.4423 27.2542 79.3681 26.635 79.2328 25.5537C79.2182 25.4327 79.201 25.2677 79.1797 25.0576C79.1585 24.8481 79.13 24.5828 79.0942 24.2629L78.9563 22.7054C78.9417 22.855 78.9224 23.0219 78.8972 23.2068C78.872 23.3917 78.8455 23.5945 78.8177 23.8147C78.7679 24.2556 78.7328 24.5615 78.7116 24.7317C78.6903 24.9026 78.6758 25.0057 78.6691 25.041L78.3601 27.0354L77.9131 29.617H79.7859V29.619Z" fill="#101121"/>
        </g>
        <mask id="mask10_156_4424" style="mask-type:luminance" maskUnits="userSpaceOnUse" x="0" y="0" width="112" height="54">
            <path d="M111.5 0H0.5V54H111.5V0Z" fill="white"/>
        </mask>
        <g mask="url(#mask10_156_4424)">
            <path d="M93.7404 35.2411H85.975V18.7698H90.4107V31.2829H93.7404V35.2411Z" fill="#101121"/>
        </g>
    </g>
    <defs>
        <clipPath id="clip0_156_4424">
            <rect width="111" height="54" fill="white" transform="translate(0.5)"/>
        </clipPath>
    </defs>
</svg>
