<?xml version="1.0" encoding="utf-8"?>
<!-- Generator: Adobe Illustrator 28.0.0, SVG Export Plug-In . SVG Version: 6.00 Build 0)  -->
<svg version="1.1" id="Слой_1" xmlns="http://www.w3.org/2000/svg" xmlns:xlink="http://www.w3.org/1999/xlink" x="0px" y="0px"
	 viewBox="0 0 1920 1080" style="enable-background:new 0 0 1920 1080;" xml:space="preserve">
<style type="text/css">
	.st0{fill:#6D7075;}
	.st1{font-family:'Gotham-Book';}
	.st2{font-size:30px;}
	.st3{fill:none;stroke:#9DA0A5;stroke-width:2;stroke-miterlimit:10;}
	.st4{fill:#FF0000;}
	.st5{fill:#2BBE54;}
	.st6{font-size:52.9px;}
	.st7{font-size:15.4542px;}
	.st8{fill:#FF9D00;}
	.st9{font-size:23px;}
	.st10{fill:#00C445;}
	.st11{fill:#FFCE00;}
	.st12{fill:#69C1E7;}
	.st13{fill:none;stroke:#DBD7D9;stroke-width:2;stroke-miterlimit:10;}
	.st14{fill:#FECE00;}
	.st15{fill:#FE9000;}
	.st16{fill:#FFD101;}
</style>
<text transform="matrix(1 0 0 1 82.002 82.5957)" class="st0 st1 st2">За барной стойкой</text>
<text transform="matrix(1 0 0 1 773.4688 1026.6582)" class="st0 st1 st6">Сцена</text>
<text transform="matrix(1 0 0 1 289.5566 892.1357)" class="st0 st1 st7">стол 1</text>
<text transform="matrix(1 0 0 1 469.6943 819.1357)" class="st0 st1 st7">стол 2</text>
<text transform="matrix(1 0 0 1 1378.7168 892.1357)" class="st0 st1 st7">стол 7</text>
<text transform="matrix(1 0 0 1 1194.3232 819.1357)" class="st0 st1 st7">стол 6</text>
<text transform="matrix(1 0 0 1 653.5859 779.1357)" class="st0 st1 st7">стол 3</text>
<text transform="matrix(1 0 0 1 832.1377 779.1357)" class="st0 st1 st7">стол 4</text>
<text transform="matrix(1 0 0 1 1011.5938 779.1357)" class="st0 st1 st7">стол 5</text>
<g>
	<path class="st0" d="M858,949c97.1,0,190.7,19.9,263.6,56c0.3,0.1,0.5,0.7,0.4,1.2c-0.1,0.5-0.4,0.8-0.7,0.7
		c-72.8-36.1-166.3-56-263.3-56c-97,0-190.5,19.9-263.3,56c-0.3,0.1-0.6-0.2-0.7-0.7c-0.1-0.5,0.1-1.1,0.4-1.2
		C667.3,968.9,760.9,949,858,949z"/>
</g>
<g>
	<circle class="st3" cx="312.8" cy="887.9" r="41.2"/>
	<circle class="st4" cx="368.5" cy="856.5" r="9.9"/>
	<circle class="st4" cx="255.7" cy="915.7" r="9.9"/>
	<circle class="st4" cx="253.9" cy="863.8" r="9.9"/>
	<circle class="st4" cx="326.9" cy="825.6" r="9.9"/>
</g>
<g>
	<circle class="st3" cx="497.1" cy="815.3" r="41.2"/>
	<circle class="st4" cx="555.4" cy="789" r="9.9"/>
	<circle class="st4" cx="437.7" cy="837.7" r="9.9"/>
	<circle class="st4" cx="440.6" cy="785.9" r="9.9"/>
	<circle class="st4" cx="516.7" cy="754.4" r="9.9"/>
</g>
<g>
	<circle class="st3" cx="1403.5" cy="887.9" r="41.2"/>
	<circle class="st4" cx="1347.8" cy="856.5" r="9.9"/>
	<circle class="st4" cx="1460.6" cy="915.7" r="9.9"/>
	<circle class="st4" cx="1462.4" cy="863.8" r="9.9"/>
	<circle class="st4" cx="1389.5" cy="825.6" r="9.9"/>
</g>
<g>
	<circle class="st3" cx="1220.2" cy="815.3" r="41.2"/>
	<circle class="st4" cx="1161.9" cy="789" r="9.9"/>
	<circle class="st4" cx="1279.6" cy="837.7" r="9.9"/>
	<circle class="st4" cx="1276.7" cy="785.9" r="9.9"/>
	<circle class="st4" cx="1200.7" cy="754.4" r="9.9"/>
</g>
<g>
	<circle class="st3" cx="678.7" cy="774.8" r="41.2"/>
	<circle class="st4" cx="742.7" cy="772.9" r="9.9"/>
	<circle class="st4" cx="615.3" cy="772.9" r="9.9"/>
	<circle class="st4" cx="637.8" cy="726.1" r="9.9"/>
	<circle class="st4" cx="720.1" cy="726.1" r="9.9"/>
</g>
<g>
	<circle class="st3" cx="857.7" cy="774.8" r="41.2"/>
	<circle class="st4" cx="921.7" cy="772.9" r="9.9"/>
	<circle class="st4" cx="794.3" cy="772.9" r="9.9"/>
	<circle class="st4" cx="816.8" cy="726.1" r="9.9"/>
	<circle class="st4" cx="899.1" cy="726.1" r="9.9"/>
</g>
<g>
	<circle class="st3" cx="1036.7" cy="774.8" r="41.2"/>
	<circle class="st4" cx="1100.7" cy="772.9" r="9.9"/>
	<circle class="st4" cx="973.3" cy="772.9" r="9.9"/>
	<circle class="st4" cx="995.8" cy="726.1" r="9.9"/>
	<circle class="st4" cx="1078.1" cy="726.1" r="9.9"/>
</g>
<text transform="matrix(1 0 0 1 287.4541 713.1357)" class="st0 st1 st7">стол 8</text>
<text transform="matrix(1 0 0 1 122.5566 799.1357)" class="st0 st1 st7">стол 16</text>
<text transform="matrix(1 0 0 1 1547.8271 800.1357)" class="st0 st1 st7">стол 15</text>
<text transform="matrix(1 0 0 1 469.3232 640.1357)" class="st0 st1 st7">стол 9</text>
<text transform="matrix(1 0 0 1 1375.3711 713.1357)" class="st0 st1 st7">стол 14</text>
<text transform="matrix(1 0 0 1 1191.8193 640.1357)" class="st0 st1 st7">стол 13</text>
<text transform="matrix(1 0 0 1 650.0312 600.1357)" class="st0 st1 st7">стол 10</text>
<text transform="matrix(1 0 0 1 831.79 600.1357)" class="st0 st1 st7">стол 11</text>
<text transform="matrix(1 0 0 1 1008.9277 600.1357)" class="st0 st1 st7">стол 12</text>
<g>
	<circle class="st3" cx="312.8" cy="708.9" r="41.2"/>
	<circle class="st8" cx="368.5" cy="677.5" r="9.9"/>
	<circle class="st8" cx="255.7" cy="736.7" r="9.9"/>
	<circle class="st8" cx="253.9" cy="684.8" r="9.9"/>
	<circle class="st8" cx="326.9" cy="646.6" r="9.9"/>
</g>
<g>
	<circle class="st3" cx="150.8" cy="794.9" r="41.2"/>
	<circle class="st8" cx="206.5" cy="763.5" r="9.9"/>
	<circle class="st8" cx="93.7" cy="822.7" r="9.9"/>
	<circle class="st8" cx="91.9" cy="770.8" r="9.9"/>
	<circle class="st8" cx="164.9" cy="732.6" r="9.9"/>
</g>
<g>
	<circle class="st3" cx="1575.6" cy="795.9" r="41.2"/>
	<circle class="st8" cx="1519.9" cy="764.5" r="9.9"/>
	<circle class="st8" cx="1632.8" cy="823.7" r="9.9"/>
	<circle class="st8" cx="1634.5" cy="771.8" r="9.9"/>
	<circle class="st8" cx="1561.6" cy="733.6" r="9.9"/>
</g>
<g>
	<circle class="st3" cx="497.1" cy="636.3" r="41.2"/>
	<circle class="st8" cx="555.4" cy="610" r="9.9"/>
	<circle class="st8" cx="437.7" cy="658.7" r="9.9"/>
	<circle class="st8" cx="440.6" cy="606.9" r="9.9"/>
	<circle class="st8" cx="516.7" cy="575.4" r="9.9"/>
</g>
<g>
	<circle class="st3" cx="1403.5" cy="708.9" r="41.2"/>
	<circle class="st8" cx="1347.8" cy="677.5" r="9.9"/>
	<circle class="st8" cx="1460.6" cy="736.7" r="9.9"/>
	<circle class="st8" cx="1462.4" cy="684.8" r="9.9"/>
	<circle class="st8" cx="1389.5" cy="646.6" r="9.9"/>
</g>
<text transform="matrix(1 0 0 1 1547.9277 629.1357)" class="st0 st1 st7">стол 21</text>
<text transform="matrix(6.123234e-17 1 -1 6.123234e-17 1847.3096 250.1941)" class="st0 st1 st9">диван 1</text>
<text transform="matrix(6.123234e-17 1 -1 6.123234e-17 1847.3096 460.4226)" class="st0 st1 st9">диван 2</text>
<text transform="matrix(6.123234e-17 1 -1 6.123234e-17 1847.3096 672.2615)" class="st0 st1 st9">диван 3</text>
<text transform="matrix(6.123234e-17 1 -1 6.123234e-17 1847.3096 882.5945)" class="st0 st1 st9">диван 4</text>
<text transform="matrix(1 0 0 1 1373.1689 542.1357)" class="st0 st1 st7">стол 20</text>
<g>
	<circle class="st3" cx="1575.6" cy="624.9" r="41.2"/>
	<circle class="st10" cx="1519.9" cy="593.5" r="9.9"/>
	<circle class="st10" cx="1632.8" cy="652.7" r="9.9"/>
	<circle class="st10" cx="1634.5" cy="600.8" r="9.9"/>
	<circle class="st10" cx="1561.6" cy="562.6" r="9.9"/>
</g>
<g>
	<circle class="st3" cx="1403.5" cy="537.9" r="41.2"/>
	<circle class="st10" cx="1347.8" cy="506.5" r="9.9"/>
	<circle class="st10" cx="1460.6" cy="565.7" r="9.9"/>
	<circle class="st10" cx="1462.4" cy="513.8" r="9.9"/>
	<circle class="st10" cx="1389.5" cy="475.6" r="9.9"/>
</g>
<g>
	<circle class="st3" cx="1220.2" cy="636.3" r="41.2"/>
	<circle class="st8" cx="1161.9" cy="610" r="9.9"/>
	<circle class="st8" cx="1279.6" cy="658.7" r="9.9"/>
	<circle class="st8" cx="1276.7" cy="606.9" r="9.9"/>
	<circle class="st8" cx="1200.7" cy="575.4" r="9.9"/>
</g>
<g>
	<circle class="st3" cx="678.7" cy="595.8" r="41.2"/>
	<circle class="st8" cx="742.7" cy="593.9" r="9.9"/>
	<circle class="st8" cx="615.3" cy="593.9" r="9.9"/>
	<circle class="st8" cx="637.8" cy="547.1" r="9.9"/>
	<circle class="st8" cx="720.1" cy="547.1" r="9.9"/>
</g>
<g>
	<circle class="st3" cx="857.7" cy="595.8" r="41.2"/>
	<circle class="st8" cx="921.7" cy="593.9" r="9.9"/>
	<circle class="st8" cx="794.3" cy="593.9" r="9.9"/>
	<circle class="st8" cx="816.8" cy="547.1" r="9.9"/>
	<circle class="st8" cx="899.1" cy="547.1" r="9.9"/>
</g>
<g>
	<circle class="st3" cx="1036.7" cy="595.8" r="41.2"/>
	<circle class="st8" cx="1100.7" cy="593.9" r="9.9"/>
	<circle class="st8" cx="973.3" cy="593.9" r="9.9"/>
	<circle class="st8" cx="995.8" cy="547.1" r="9.9"/>
	<circle class="st8" cx="1078.1" cy="547.1" r="9.9"/>
</g>
<text transform="matrix(1 0 0 1 650.9512 422.1357)" class="st0 st1 st7">стол 17</text>
<text transform="matrix(1 0 0 1 829.6885 422.1357)" class="st0 st1 st7">стол 18</text>
<text transform="matrix(1 0 0 1 734.6611 239.1357)"><tspan x="0" y="0" class="st0 st1 st7">высокий</tspan><tspan x="10.9" y="18.5" class="st0 st1 st7">стол 1</tspan></text>
<text transform="matrix(1 0 0 1 1008.5566 422.1357)" class="st0 st1 st7">стол 19</text>
<g>
	<circle class="st3" cx="678.7" cy="417.8" r="41.2"/>
	<circle class="st10" cx="742.7" cy="415.9" r="9.9"/>
	<circle class="st10" cx="615.3" cy="415.9" r="9.9"/>
	<circle class="st10" cx="637.8" cy="369.1" r="9.9"/>
	<circle class="st10" cx="720.1" cy="369.1" r="9.9"/>
</g>
<g>
	<circle class="st3" cx="857.7" cy="417.8" r="41.2"/>
	<circle class="st10" cx="921.7" cy="415.9" r="9.9"/>
	<circle class="st10" cx="794.3" cy="415.9" r="9.9"/>
	<circle class="st10" cx="816.8" cy="369.1" r="9.9"/>
	<circle class="st10" cx="899.1" cy="369.1" r="9.9"/>
</g>
<g>
	<circle class="st3" cx="1036.7" cy="417.8" r="41.2"/>
	<circle class="st10" cx="1100.7" cy="415.9" r="9.9"/>
	<circle class="st10" cx="973.3" cy="415.9" r="9.9"/>
	<circle class="st10" cx="995.8" cy="369.1" r="9.9"/>
	<circle class="st10" cx="1078.1" cy="369.1" r="9.9"/>
</g>
<polygon class="st3" points="769.5,190.5 721.9,225 740.1,281 798.9,281 817.1,225 "/>
<circle class="st11" cx="705.5" cy="257.6" r="9.9"/>
<circle class="st11" cx="730.5" cy="190.6" r="9.9"/>
<circle class="st11" cx="831.5" cy="257.6" r="9.9"/>
<circle class="st11" cx="806.5" cy="190.6" r="9.9"/>
<text transform="matrix(1 0 0 1 918.6611 239.1357)"><tspan x="0" y="0" class="st0 st1 st7">высокий</tspan><tspan x="9" y="18.5" class="st0 st1 st7">стол 2</tspan></text>
<polygon class="st3" points="953.5,190.5 905.9,225 924.1,281 982.9,281 1001.1,225 "/>
<circle class="st11" cx="889.5" cy="257.6" r="9.9"/>
<circle class="st11" cx="914.5" cy="190.6" r="9.9"/>
<circle class="st11" cx="1015.5" cy="257.6" r="9.9"/>
<circle class="st11" cx="990.5" cy="190.6" r="9.9"/>
<text transform="matrix(1 0 0 1 1102.6611 239.1357)"><tspan x="0" y="0" class="st0 st1 st7">высокий</tspan><tspan x="8.9" y="18.5" class="st0 st1 st7">стол 3</tspan></text>
<polygon class="st3" points="1137.5,190.5 1089.9,225 1108.1,281 1166.9,281 1185.1,225 "/>
<circle class="st11" cx="1073.5" cy="257.6" r="9.9"/>
<circle class="st11" cx="1098.5" cy="190.6" r="9.9"/>
<circle class="st11" cx="1199.5" cy="257.6" r="9.9"/>
<circle class="st11" cx="1174.5" cy="190.6" r="9.9"/>
<circle class="st12" cx="92" cy="122" r="10"/>
<circle class="st12" cx="134" cy="122" r="10"/>
<g>
	<path class="st3" d="M1796,643.1v14.7c0,8.9,7.2,16.1,16.1,16.1h3.7c8.9,0,16.1,7.2,16.1,16.1v53.7c0,8.9-7.2,16.1-16.1,16.1h-3.7
		c-8.9,0-16.1,7.2-16.1,16.1v14.7c0,8.9,7.2,16.1,16.1,16.1h50.7c8.9,0,16.1-7.2,16.1-16.1V765v-5v-86v-16v-14.9
		c0-8.9-7.2-16.1-16.1-16.1h-50.7C1803.2,627,1796,634.2,1796,643.1z"/>
	<path class="st3" d="M1766.5,759h-59c-6.9,0-12.5-5.6-12.5-12.5v-59c0-6.9,5.6-12.5,12.5-12.5h59c6.9,0,12.5,5.6,12.5,12.5v59
		C1779,753.4,1773.4,759,1766.5,759z"/>
	<circle class="st10" cx="1806" cy="696" r="10"/>
	<circle class="st10" cx="1806" cy="738" r="10"/>
</g>
<g>
	<path class="st3" d="M1796,431.1v14.7c0,8.9,7.2,16.1,16.1,16.1h3.7c8.9,0,16.1,7.2,16.1,16.1v53.7c0,8.9-7.2,16.1-16.1,16.1h-3.7
		c-8.9,0-16.1,7.2-16.1,16.1v14.7c0,8.9,7.2,16.1,16.1,16.1h50.7c8.9,0,16.1-7.2,16.1-16.1V553v-5v-86v-16v-14.9
		c0-8.9-7.2-16.1-16.1-16.1h-50.7C1803.2,415,1796,422.2,1796,431.1z"/>
	<path class="st3" d="M1766.5,547h-59c-6.9,0-12.5-5.6-12.5-12.5v-59c0-6.9,5.6-12.5,12.5-12.5h59c6.9,0,12.5,5.6,12.5,12.5v59
		C1779,541.4,1773.4,547,1766.5,547z"/>
	<circle class="st10" cx="1806" cy="484" r="10"/>
	<circle class="st10" cx="1806" cy="526" r="10"/>
</g>
<g>
	<path class="st3" d="M1796,219.1v14.7c0,8.9,7.2,16.1,16.1,16.1h3.7c8.9,0,16.1,7.2,16.1,16.1v53.7c0,8.9-7.2,16.1-16.1,16.1h-3.7
		c-8.9,0-16.1,7.2-16.1,16.1v14.7c0,8.9,7.2,16.1,16.1,16.1h50.7c8.9,0,16.1-7.2,16.1-16.1V341v-5v-86v-16v-14.9
		c0-8.9-7.2-16.1-16.1-16.1h-50.7C1803.2,203,1796,210.2,1796,219.1z"/>
</g>
<g>
	<path class="st3" d="M1796,855.1v14.7c0,8.9,7.2,16.1,16.1,16.1h3.7c8.9,0,16.1,7.2,16.1,16.1v53.7c0,8.9-7.2,16.1-16.1,16.1h-3.7
		c-8.9,0-16.1,7.2-16.1,16.1v14.7c0,8.9,7.2,16.1,16.1,16.1h50.7c8.9,0,16.1-7.2,16.1-16.1V977v-5v-86v-16v-14.9
		c0-8.9-7.2-16.1-16.1-16.1h-50.7C1803.2,839,1796,846.2,1796,855.1z"/>
	<path class="st3" d="M1766.5,971h-59c-6.9,0-12.5-5.6-12.5-12.5v-59c0-6.9,5.6-12.5,12.5-12.5h59c6.9,0,12.5,5.6,12.5,12.5v59
		C1779,965.4,1773.4,971,1766.5,971z"/>
	<circle class="st10" cx="1806" cy="908" r="10"/>
	<circle class="st10" cx="1806" cy="950" r="10"/>
</g>
</svg>
