<svg width="24" height="25" viewBox="0 0 24 25" fill="none" xmlns="http://www.w3.org/2000/svg">
<path d="M12 0.439209C18.6274 0.439209 24 5.81179 24 12.4392C24 19.0666 18.6274 24.4392 12 24.4392C5.37258 24.4392 0 19.0666 0 12.4392C0 5.81179 5.37258 0.439209 12 0.439209ZM17.8965 8.66479C18.098 7.85701 17.5883 7.49 17.0605 7.72925L5.50098 12.1863C4.71197 12.5027 4.71683 12.9433 5.35742 13.1394L8.32324 14.0652L15.1914 9.73315C15.5155 9.53674 15.8125 9.64244 15.5684 9.85913L10.0039 14.8806L9.7998 17.9392C10.0998 17.9392 10.2329 17.8022 10.4004 17.6394L11.8418 16.238L14.8398 18.4529C15.3916 18.7573 15.7902 18.6 15.9277 17.9412L17.8965 8.66479Z" fill="white"/>
</svg>
