<svg width="24" height="25" viewBox="0 0 24 25" fill="none" xmlns="http://www.w3.org/2000/svg">
<path d="M12 0.439209C18.6274 0.439209 24 5.81179 24 12.4392C24 19.0666 18.6274 24.4392 12 24.4392C5.37258 24.4392 0 19.0666 0 12.4392C0 5.81179 5.37258 0.439209 12 0.439209ZM9.54883 5.29175C9.27075 5.29189 8.95033 5.49981 8.90332 5.88452C8.70909 7.47642 7.9832 8.43186 6.62012 8.89038L6.46777 8.94116C6.44463 8.94911 6.42871 8.97121 6.42871 8.99585V11.7126C6.42882 11.7443 6.45482 11.7703 6.48633 11.7703H7.87891V15.116C7.87892 17.7869 9.71632 19.0465 13.1143 19.0466C14.4815 19.0466 15.8368 18.5572 16.2852 17.9636L16.375 17.8445L15.5273 15.3152C15.5194 15.292 15.4971 15.2761 15.4727 15.2761H13.5791C13.5537 15.2759 13.5309 15.2599 13.5244 15.2351C13.5024 15.1509 13.4894 15.0478 13.4873 14.9207V11.8279C13.4873 11.7962 13.5124 11.7704 13.5439 11.7703H15.7715C15.803 11.7703 15.829 11.7443 15.8291 11.7126V8.54858C15.8291 8.5168 15.8031 8.49097 15.7715 8.49097H13.5537C13.5222 8.49097 13.4961 8.46511 13.4961 8.43335V5.34937C13.496 5.31772 13.4709 5.29181 13.4395 5.29175H9.54883Z" fill="white"/>
<path d="M15.4833 17.7122C15.0685 18.1208 14.217 18.4243 13.401 18.4384C13.3702 18.4389 13.3399 18.4392 13.3096 18.4392H13.3093C10.6252 18.4391 9.90906 16.3405 9.90906 15.1005V11.2901C9.90906 11.2586 9.88418 11.2332 9.85348 11.2332H8.55558C8.5249 11.2332 8.5 11.2077 8.5 11.1762V9.44039C8.5 9.41719 8.51419 9.39649 8.53531 9.38806C9.92252 8.83499 10.6972 7.73602 10.901 6.03624C10.9123 5.9418 10.9884 5.93921 10.9892 5.93921H12.7217C12.7524 5.93921 12.7773 5.96469 12.7773 5.99614V9.04696C12.7773 9.07838 12.8022 9.10386 12.8329 9.10386H14.9895C15.0202 9.10386 15.0451 9.12937 15.0451 9.16079V11.1762C15.0451 11.2077 15.0202 11.2332 14.9895 11.2332H12.8236C12.7929 11.2332 12.768 11.2586 12.768 11.2901L12.7681 14.9114C12.7808 15.7268 13.1661 16.1401 13.9133 16.1401C14.2143 16.1401 14.5592 16.0684 14.874 15.9452C14.9034 15.9337 14.9359 15.9491 14.946 15.9796L15.4969 17.6524C15.5039 17.6735 15.499 17.6968 15.4833 17.7122Z" fill="white"/>
<path d="M9.5 12.9392H8V11.9392H9.45113C9.47812 11.9392 9.5 11.9645 9.5 11.9956V12.9392Z" fill="white"/>
</svg>
