<svg width="704" height="704" viewBox="0 0 704 704" fill="none" xmlns="http://www.w3.org/2000/svg">
<path d="M583.404 669H106.126C74.0802 669 48 642.868 48 610.733V93.2666C48 61.1434 74.0689 35 106.126 35H172.322C174.869 35 176.93 37.0652 176.93 39.6182C176.93 42.1713 174.869 44.2364 172.322 44.2364H106.126C79.1627 44.2364 57.2141 66.2268 57.2141 93.2666V610.733C57.2141 637.762 79.1514 659.764 106.126 659.764H583.393C585.94 659.764 588 661.829 588 664.382C588 666.935 585.951 669 583.404 669Z" fill="#16172D"/>
<path d="M596.416 644H106.465C88.0051 644 73 628.927 73 610.41V93.5903C73 75.0726 88.0164 60 106.465 60H172.492C175.032 60 177.087 62.0626 177.087 64.6124C177.087 67.1623 175.032 69.2249 172.492 69.2249H106.465C93.0745 69.2249 82.1905 80.161 82.1905 93.5903V610.41C82.1905 623.85 93.0858 634.775 106.465 634.775H596.405C598.945 634.775 601 636.838 601 639.388C601 641.937 598.956 644 596.416 644Z" fill="#16172D"/>
<path d="M122.587 35H598.982C630.968 35 657 61.132 657 93.2666V610.733C657 642.857 630.979 669 598.982 669H532.908C530.366 669 528.309 666.935 528.309 664.382C528.309 661.829 530.366 659.764 532.908 659.764H598.982C625.895 659.764 647.803 637.773 647.803 610.733V93.2666C647.803 66.2382 625.906 44.2364 598.982 44.2364H122.599C120.056 44.2364 118 42.1712 118 39.6182C118 37.0651 120.045 35 122.587 35Z" fill="#16172D"/>
<path d="M108.593 60H599.472C617.966 60 633 75.0726 633 93.5903V610.41C633 628.927 617.955 644 599.472 644H533.32C530.774 644 528.716 641.937 528.716 639.388C528.716 636.838 530.774 634.775 533.32 634.775H599.472C612.887 634.775 623.792 623.839 623.792 610.41V93.5903C623.792 80.1497 612.876 69.2249 599.472 69.2249H108.604C106.059 69.2249 104 67.1623 104 64.6124C104 62.0626 106.047 60 108.593 60Z" fill="#16172D"/>
<path d="M451 425.266L445.152 529.857C422.564 538.614 402.346 543 384.468 543C342.406 543 306.983 528.146 278.244 498.439C246.086 465.134 230 418 230 357.02C230 299.959 245.114 254.14 275.312 219.594C305.525 185.208 345.9 168 396.407 168C412.827 168 429.552 170.968 446.61 176.918V280.339C431.496 265.792 415.972 258.526 400.068 258.526C379.273 258.526 363.034 267.05 351.323 284.096C339.627 301.304 333.778 325.061 333.778 355.383C333.778 370.076 335.252 383.219 338.183 394.784C341.1 406.363 345.277 416.129 350.715 424.097C356.169 432.064 362.867 438.161 370.827 442.386C378.787 446.611 387.885 448.716 398.108 448.716C415.668 448.716 433.304 440.909 451 425.266Z" fill="#16172D"/>
</svg>
